<svg width="105" height="39" viewBox="0 0 105 39" fill="none" xmlns="http://www.w3.org/2000/svg">
<path d="M12 19.84C12 12.9364 17.5964 7.33997 24.5 7.33997C31.4036 7.33997 37 12.9364 37 19.84C37 26.7435 31.4036 32.34 24.5 32.34C17.5964 32.34 12 26.7435 12 19.84Z" fill="#02983E"/>
<g clip-path="url(#clip0_1_731)">
<path d="M26.2766 18.4334L24.2597 21.4683L22.897 20.5711M30.3337 20.5711C30.3337 24.2169 27.7816 26.0398 24.7482 27.0971C24.5894 27.151 24.4169 27.1484 24.2597 27.0898C21.2191 26.0398 18.667 24.2169 18.667 20.5711V15.4669C18.667 15.2735 18.7438 15.0881 18.8806 14.9513C19.0173 14.8146 19.2028 14.7378 19.3962 14.7378C20.8545 14.7378 22.6774 13.8628 23.9462 12.7544C24.1006 12.6224 24.2971 12.5499 24.5003 12.5499C24.7035 12.5499 24.9 12.6224 25.0545 12.7544C26.3305 13.87 28.1462 14.7378 29.6045 14.7378C29.7979 14.7378 29.9833 14.8146 30.1201 14.9513C30.2568 15.0881 30.3337 15.2735 30.3337 15.4669V20.5711Z" stroke="#FFF8F7" stroke-width="1.46434" stroke-linecap="round" stroke-linejoin="round"/>
</g>
<path d="M48.5246 24.84V13.995H50.7296V22.9875H55.4396V24.84H48.5246ZM60.1403 24.99C59.3803 24.99 58.7178 24.8275 58.1528 24.5025C57.5928 24.1775 57.1578 23.7175 56.8478 23.1225C56.5428 22.5275 56.3903 21.8225 56.3903 21.0075C56.3903 20.1925 56.5428 19.48 56.8478 18.87C57.1578 18.26 57.5928 17.785 58.1528 17.445C58.7178 17.105 59.3828 16.935 60.1478 16.935C60.9128 16.935 61.5753 17.1025 62.1353 17.4375C62.6953 17.7675 63.1278 18.2375 63.4328 18.8475C63.7378 19.4575 63.8903 20.1775 63.8903 21.0075C63.8903 21.7875 63.7403 22.4775 63.4403 23.0775C63.1453 23.6725 62.7178 24.14 62.1578 24.48C61.6028 24.82 60.9303 24.99 60.1403 24.99ZM60.1478 23.3625C60.5328 23.3625 60.8428 23.25 61.0778 23.025C61.3128 22.8 61.4828 22.505 61.5878 22.14C61.6928 21.77 61.7453 21.3675 61.7453 20.9325C61.7453 20.5225 61.6978 20.135 61.6028 19.77C61.5078 19.405 61.3428 19.11 61.1078 18.885C60.8728 18.66 60.5528 18.5475 60.1478 18.5475C59.7628 18.5475 59.4503 18.655 59.2103 18.87C58.9753 19.08 58.8028 19.3675 58.6928 19.7325C58.5828 20.0925 58.5278 20.4925 58.5278 20.9325C58.5278 21.3375 58.5778 21.7275 58.6778 22.1025C58.7778 22.4725 58.9453 22.775 59.1803 23.01C59.4153 23.245 59.7378 23.3625 60.1478 23.3625ZM65.3857 24.84V17.085H67.4932V18.9225C67.6182 18.5275 67.7932 18.1825 68.0182 17.8875C68.2482 17.5875 68.5257 17.355 68.8507 17.19C69.1757 17.02 69.5432 16.935 69.9532 16.935C70.0232 16.935 70.0882 16.94 70.1482 16.95C70.2132 16.955 70.2607 16.965 70.2907 16.98V19.065C70.2457 19.045 70.1907 19.0325 70.1257 19.0275C70.0657 19.0225 70.0107 19.0175 69.9607 19.0125C69.5307 18.9775 69.1632 18.99 68.8582 19.05C68.5532 19.11 68.3057 19.2125 68.1157 19.3575C67.9257 19.5025 67.7882 19.68 67.7032 19.89C67.6182 20.1 67.5757 20.335 67.5757 20.595V24.84H65.3857ZM75.1152 24.99C74.3452 24.99 73.6677 24.83 73.0827 24.51C72.5027 24.185 72.0502 23.7275 71.7252 23.1375C71.4002 22.5475 71.2377 21.8525 71.2377 21.0525C71.2377 20.2775 71.3852 19.58 71.6802 18.96C71.9802 18.335 72.4102 17.8425 72.9702 17.4825C73.5302 17.1175 74.2077 16.935 75.0027 16.935C75.7927 16.935 76.4552 17.1025 76.9902 17.4375C77.5252 17.7675 77.9302 18.23 78.2052 18.825C78.4802 19.415 78.6177 20.0975 78.6177 20.8725V21.465H73.4052C73.4052 21.86 73.4702 22.205 73.6002 22.5C73.7302 22.79 73.9177 23.015 74.1627 23.175C74.4127 23.33 74.7127 23.4075 75.0627 23.4075C75.4377 23.4075 75.7652 23.3275 76.0452 23.1675C76.3252 23.0075 76.5227 22.745 76.6377 22.38H78.6102C78.5202 22.93 78.3002 23.4 77.9502 23.79C77.6002 24.18 77.1752 24.4775 76.6752 24.6825C76.1752 24.8875 75.6552 24.99 75.1152 24.99ZM73.4052 20.16H76.5702C76.5702 19.85 76.5102 19.565 76.3902 19.305C76.2752 19.045 76.1002 18.84 75.8652 18.69C75.6352 18.54 75.3452 18.465 74.9952 18.465C74.6602 18.465 74.3727 18.5475 74.1327 18.7125C73.8977 18.8725 73.7152 19.0825 73.5852 19.3425C73.4602 19.6025 73.4002 19.875 73.4052 20.16ZM80.1953 24.84V17.085H82.3403V18.18C82.5753 17.84 82.8903 17.5475 83.2853 17.3025C83.6853 17.0575 84.1878 16.935 84.7928 16.935C85.0578 16.935 85.3278 16.9825 85.6028 17.0775C85.8778 17.1725 86.1353 17.3125 86.3753 17.4975C86.6203 17.6775 86.8178 17.905 86.9678 18.18C87.2178 17.825 87.5453 17.53 87.9503 17.295C88.3603 17.055 88.8153 16.935 89.3153 16.935C89.6053 16.935 89.8978 16.9825 90.1928 17.0775C90.4928 17.1725 90.7678 17.3275 91.0178 17.5425C91.2678 17.7575 91.4678 18.045 91.6178 18.405C91.7728 18.76 91.8503 19.2 91.8503 19.725V24.84H89.6603V19.995C89.6603 19.685 89.5978 19.4375 89.4728 19.2525C89.3528 19.0625 89.1978 18.9275 89.0078 18.8475C88.8228 18.7625 88.6253 18.72 88.4153 18.72C88.2203 18.72 88.0228 18.76 87.8228 18.84C87.6228 18.915 87.4528 19.0375 87.3128 19.2075C87.1728 19.3775 87.1028 19.6 87.1028 19.875V24.84H84.9203V19.8C84.9203 19.565 84.8578 19.3675 84.7328 19.2075C84.6078 19.0475 84.4503 18.9275 84.2603 18.8475C84.0753 18.7625 83.8853 18.72 83.6903 18.72C83.4903 18.72 83.2903 18.7625 83.0903 18.8475C82.8903 18.9275 82.7228 19.055 82.5878 19.23C82.4528 19.4 82.3853 19.615 82.3853 19.875V24.84H80.1953Z" fill="#02983E"/>
<defs>
<clipPath id="clip0_1_731">
<rect width="17.5" height="17.5" fill="white" transform="translate(15.75 11.09)"/>
</clipPath>
</defs>
</svg>
