<svg width="103" height="39" viewBox="0 0 103 39" fill="none" xmlns="http://www.w3.org/2000/svg">
<path d="M12 19.84C12 12.9364 17.5964 7.33997 24.5 7.33997C31.4036 7.33997 37 12.9364 37 19.84C37 26.7435 31.4036 32.34 24.5 32.34C17.5964 32.34 12 26.7435 12 19.84Z" fill="#E6372B"/>
<g clip-path="url(#clip0_1_715)">
<path d="M26.2358 17.8225L22.7635 21.5841M22.7635 17.8225L26.2358 21.5841M30.0552 20.4556C30.0552 24.2172 27.6246 26.098 24.7358 27.1888C24.5845 27.2444 24.4202 27.2417 24.2705 27.1813C21.3746 26.098 18.9441 24.2172 18.9441 20.4556V15.1894C18.9441 14.9899 19.0173 14.7985 19.1475 14.6574C19.2777 14.5164 19.4544 14.4371 19.6385 14.4371C21.0274 14.4371 22.7635 13.5343 23.9719 12.3908C24.119 12.2546 24.3061 12.1798 24.4996 12.1798C24.6932 12.1798 24.8803 12.2546 25.0274 12.3908C26.2427 13.5418 27.9719 14.4371 29.3608 14.4371C29.5449 14.4371 29.7216 14.5164 29.8518 14.6574C29.982 14.7985 30.0552 14.9899 30.0552 15.1894V20.4556Z" stroke="#FFF8F7" stroke-width="1.46" stroke-linecap="round" stroke-linejoin="round"/>
</g>
<path d="M46.5246 24.84V13.995H48.7296V22.9875H53.4396V24.84H46.5246ZM58.1403 24.99C57.3803 24.99 56.7178 24.8275 56.1528 24.5025C55.5928 24.1775 55.1578 23.7175 54.8478 23.1225C54.5428 22.5275 54.3903 21.8225 54.3903 21.0075C54.3903 20.1925 54.5428 19.48 54.8478 18.87C55.1578 18.26 55.5928 17.785 56.1528 17.445C56.7178 17.105 57.3828 16.935 58.1478 16.935C58.9128 16.935 59.5753 17.1025 60.1353 17.4375C60.6953 17.7675 61.1278 18.2375 61.4328 18.8475C61.7378 19.4575 61.8903 20.1775 61.8903 21.0075C61.8903 21.7875 61.7403 22.4775 61.4403 23.0775C61.1453 23.6725 60.7178 24.14 60.1578 24.48C59.6028 24.82 58.9303 24.99 58.1403 24.99ZM58.1478 23.3625C58.5328 23.3625 58.8428 23.25 59.0778 23.025C59.3128 22.8 59.4828 22.505 59.5878 22.14C59.6928 21.77 59.7453 21.3675 59.7453 20.9325C59.7453 20.5225 59.6978 20.135 59.6028 19.77C59.5078 19.405 59.3428 19.11 59.1078 18.885C58.8728 18.66 58.5528 18.5475 58.1478 18.5475C57.7628 18.5475 57.4503 18.655 57.2103 18.87C56.9753 19.08 56.8028 19.3675 56.6928 19.7325C56.5828 20.0925 56.5278 20.4925 56.5278 20.9325C56.5278 21.3375 56.5778 21.7275 56.6778 22.1025C56.7778 22.4725 56.9453 22.775 57.1803 23.01C57.4153 23.245 57.7378 23.3625 58.1478 23.3625ZM63.3857 24.84V17.085H65.4932V18.9225C65.6182 18.5275 65.7932 18.1825 66.0182 17.8875C66.2482 17.5875 66.5257 17.355 66.8507 17.19C67.1757 17.02 67.5432 16.935 67.9532 16.935C68.0232 16.935 68.0882 16.94 68.1482 16.95C68.2132 16.955 68.2607 16.965 68.2907 16.98V19.065C68.2457 19.045 68.1907 19.0325 68.1257 19.0275C68.0657 19.0225 68.0107 19.0175 67.9607 19.0125C67.5307 18.9775 67.1632 18.99 66.8582 19.05C66.5532 19.11 66.3057 19.2125 66.1157 19.3575C65.9257 19.5025 65.7882 19.68 65.7032 19.89C65.6182 20.1 65.5757 20.335 65.5757 20.595V24.84H63.3857ZM73.1152 24.99C72.3452 24.99 71.6677 24.83 71.0827 24.51C70.5027 24.185 70.0502 23.7275 69.7252 23.1375C69.4002 22.5475 69.2377 21.8525 69.2377 21.0525C69.2377 20.2775 69.3852 19.58 69.6802 18.96C69.9802 18.335 70.4102 17.8425 70.9702 17.4825C71.5302 17.1175 72.2077 16.935 73.0027 16.935C73.7927 16.935 74.4552 17.1025 74.9902 17.4375C75.5252 17.7675 75.9302 18.23 76.2052 18.825C76.4802 19.415 76.6177 20.0975 76.6177 20.8725V21.465H71.4052C71.4052 21.86 71.4702 22.205 71.6002 22.5C71.7302 22.79 71.9177 23.015 72.1627 23.175C72.4127 23.33 72.7127 23.4075 73.0627 23.4075C73.4377 23.4075 73.7652 23.3275 74.0452 23.1675C74.3252 23.0075 74.5227 22.745 74.6377 22.38H76.6102C76.5202 22.93 76.3002 23.4 75.9502 23.79C75.6002 24.18 75.1752 24.4775 74.6752 24.6825C74.1752 24.8875 73.6552 24.99 73.1152 24.99ZM71.4052 20.16H74.5702C74.5702 19.85 74.5102 19.565 74.3902 19.305C74.2752 19.045 74.1002 18.84 73.8652 18.69C73.6352 18.54 73.3452 18.465 72.9952 18.465C72.6602 18.465 72.3727 18.5475 72.1327 18.7125C71.8977 18.8725 71.7152 19.0825 71.5852 19.3425C71.4602 19.6025 71.4002 19.875 71.4052 20.16ZM78.1953 24.84V17.085H80.3403V18.18C80.5753 17.84 80.8903 17.5475 81.2853 17.3025C81.6853 17.0575 82.1878 16.935 82.7928 16.935C83.0578 16.935 83.3278 16.9825 83.6028 17.0775C83.8778 17.1725 84.1353 17.3125 84.3753 17.4975C84.6203 17.6775 84.8178 17.905 84.9678 18.18C85.2178 17.825 85.5453 17.53 85.9503 17.295C86.3603 17.055 86.8153 16.935 87.3153 16.935C87.6053 16.935 87.8978 16.9825 88.1928 17.0775C88.4928 17.1725 88.7678 17.3275 89.0178 17.5425C89.2678 17.7575 89.4678 18.045 89.6178 18.405C89.7728 18.76 89.8503 19.2 89.8503 19.725V24.84H87.6603V19.995C87.6603 19.685 87.5978 19.4375 87.4728 19.2525C87.3528 19.0625 87.1978 18.9275 87.0078 18.8475C86.8228 18.7625 86.6253 18.72 86.4153 18.72C86.2203 18.72 86.0228 18.76 85.8228 18.84C85.6228 18.915 85.4528 19.0375 85.3128 19.2075C85.1728 19.3775 85.1028 19.6 85.1028 19.875V24.84H82.9203V19.8C82.9203 19.565 82.8578 19.3675 82.7328 19.2075C82.6078 19.0475 82.4503 18.9275 82.2603 18.8475C82.0753 18.7625 81.8853 18.72 81.6903 18.72C81.4903 18.72 81.2903 18.7625 81.0903 18.8475C80.8903 18.9275 80.7228 19.055 80.5878 19.23C80.4528 19.4 80.3853 19.615 80.3853 19.875V24.84H78.1953Z" fill="#E6372B"/>
<defs>
<clipPath id="clip0_1_715">
<rect width="17.5" height="17.5" fill="white" transform="translate(15.75 11.09)"/>
</clipPath>
</defs>
</svg>
